<svg xmlns="http://www.w3.org/2000/svg" viewBox="0 0 800 450" fill="none">
  <defs>
    <linearGradient id="g" x1="0" y1="0" x2="1" y2="1">
      <stop offset="0" stop-color="#f0c060"/><stop offset=".5" stop-color="#d4a853"/><stop offset="1" stop-color="#e8923a"/>
    </linearGradient>
    <radialGradient id="glow" cx="50%" cy="50%" r="60%">
      <stop offset="0" stop-color="#d4a853" stop-opacity=".16"/><stop offset="1" stop-color="#d4a853" stop-opacity="0"/>
    </radialGradient>
  </defs>
  <rect width="800" height="450" fill="#0a0a0c"/>
  <rect width="800" height="450" fill="url(#glow)"/>
  <rect x="255" y="175" width="300" height="70" fill="#d4a853" opacity=".07"/>
  <g stroke="#d4a853" stroke-opacity=".28" stroke-width="1.5">
    <line x1="288" y1="75" x2="288" y2="375"/><line x1="322" y1="75" x2="322" y2="375"/>
    <line x1="388" y1="75" x2="388" y2="375"/><line x1="422" y1="75" x2="422" y2="375"/>
    <line x1="488" y1="75" x2="488" y2="375"/><line x1="522" y1="75" x2="522" y2="375"/>
    <line x1="255" y1="108" x2="555" y2="108"/><line x1="255" y1="142" x2="555" y2="142"/>
    <line x1="255" y1="208" x2="555" y2="208"/><line x1="255" y1="242" x2="555" y2="242"/>
    <line x1="255" y1="308" x2="555" y2="308"/><line x1="255" y1="342" x2="555" y2="342"/>
  </g>
  <g stroke="url(#g)" stroke-width="3">
    <line x1="255" y1="75" x2="255" y2="375"/><line x1="355" y1="75" x2="355" y2="375"/>
    <line x1="455" y1="75" x2="455" y2="375"/><line x1="555" y1="75" x2="555" y2="375"/>
    <line x1="255" y1="75" x2="555" y2="75"/><line x1="255" y1="175" x2="555" y2="175"/>
    <line x1="255" y1="275" x2="555" y2="275"/><line x1="255" y1="375" x2="555" y2="375"/>
  </g>
  <g font-family="ui-monospace,monospace" font-size="26" fill="#f0c060" text-anchor="middle">
    <text x="271" y="101">5</text><text x="338" y="101">3</text><text x="505" y="101">1</text>
    <text x="405" y="234">7</text><text x="538" y="234">6</text>
    <text x="271" y="334">9</text><text x="438" y="334">8</text>
  </g>
  <line x1="255" y1="210" x2="555" y2="210" stroke="#f0c060" stroke-width="2.5" opacity=".7"/>
</svg>
