<svg xmlns="http://www.w3.org/2000/svg" viewBox="0 0 800 450" fill="none">
  <defs>
    <linearGradient id="g" x1="0" y1="0" x2="1" y2="1">
      <stop offset="0" stop-color="#f0c060"/><stop offset=".5" stop-color="#d4a853"/><stop offset="1" stop-color="#e8923a"/>
    </linearGradient>
    <radialGradient id="glow" cx="50%" cy="45%" r="60%">
      <stop offset="0" stop-color="#d4a853" stop-opacity=".16"/><stop offset="1" stop-color="#d4a853" stop-opacity="0"/>
    </radialGradient>
  </defs>
  <rect width="800" height="450" fill="#0a0a0c"/>
  <rect width="800" height="450" fill="url(#glow)"/>

  <!-- France (stylised hexagon silhouette) -->
  <path d="M398 96 L432 108 L470 132 L487 153 L471 197 L502 247 L487 289 L452 315 L404 329 L356 337 L320 337 L305 300 L323 262 L300 246 L266 236 L301 219 L331 212 L351 182 L367 150 L379 120 Z"
        fill="url(#g)" fill-opacity=".10" stroke="url(#g)" stroke-width="2.5" stroke-linejoin="round"/>

  <!-- prospect points -->
  <g>
    <g fill="#f0c060" stroke="#f0c060">
      <circle cx="466" cy="156" r="4.5" fill-opacity="1"/>
      <circle cx="438" cy="244" r="4.5"/>
      <circle cx="446" cy="300" r="4.5"/>
      <circle cx="330" cy="288" r="4.5"/>
      <circle cx="372" cy="314" r="4.5"/>
      <circle cx="318" cy="236" r="4.5"/>
      <circle cx="284" cy="236" r="4.5"/>
    </g>
    <g fill="none" stroke="#d4a853" stroke-opacity=".45">
      <circle cx="466" cy="156" r="10"/><circle cx="438" cy="244" r="10"/><circle cx="446" cy="300" r="10"/>
      <circle cx="330" cy="288" r="10"/><circle cx="372" cy="314" r="10"/><circle cx="318" cy="236" r="10"/><circle cx="284" cy="236" r="10"/>
    </g>
    <!-- Paris: capital, larger -->
    <circle cx="396" cy="158" r="7" fill="#f0c060"/>
    <circle cx="396" cy="158" r="14" fill="none" stroke="#f0c060" stroke-opacity=".6" stroke-width="2"/>
    <circle cx="396" cy="158" r="22" fill="none" stroke="#d4a853" stroke-opacity=".3" stroke-width="1.5"/>
  </g>

  <text x="70" y="418" font-family="ui-monospace,monospace" font-size="17" letter-spacing="3" fill="#8a6a2a">PROSPECTION · FRANCE</text>
</svg>
